<?xml version="1.0" standalone="no"?>
<!DOCTYPE svg PUBLIC "-//W3C//DTD SVG 20010904//EN"
 "http://www.w3.org/TR/2001/REC-SVG-20010904/DTD/svg10.dtd">
<svg version="1.0" xmlns="http://www.w3.org/2000/svg"
 width="359.000000pt" height="420.000000pt" viewBox="0 0 359.000000 420.000000"
 preserveAspectRatio="xMidYMid meet">

<g transform="translate(0.000000,420.000000) scale(0.100000,-0.100000)"
fill="#ffffff" stroke="none">
<path d="M902 3594 l-882 -506 2 -1006 3 -1007 660 -377 c363 -207 762 -434
887 -504 l227 -126 193 107 c106 59 505 286 886 503 l692 394 -2 1012 -3 1011
-586 335 c-883 505 -1175 670 -1185 670 -5 0 -406 -228 -892 -506z m755 29
c-41 -71 -99 -169 -130 -219 -55 -89 -203 -347 -799 -1389 -395 -690 -418
-729 -429 -718 -5 5 -8 362 -7 833 l3 825 540 308 c767 437 890 506 893 497 2
-4 -30 -66 -71 -137z m603 -75 c690 -391 1015 -583 1041 -614 12 -14 14 -144
11 -818 -1 -462 -6 -804 -12 -810 -12 -12 -43 39 -250 404 -96 168 -273 476
-394 685 -121 209 -275 477 -342 595 -67 118 -144 251 -170 295 -26 44 -81
139 -123 210 -135 229 -156 269 -135 261 11 -4 179 -98 374 -208z m-671 -1259
c-127 -216 -382 -659 -484 -841 l-49 -88 -258 0 c-162 0 -258 4 -258 10 0 11
126 233 231 407 39 65 119 201 177 303 205 364 717 1249 751 1300 15 23 16 -3
19 -421 l2 -447 -131 -223z m496 781 c235 -405 506 -878 585 -1020 34 -63 115
-203 180 -310 114 -190 210 -362 210 -374 0 -4 -116 -5 -257 -4 l-257 3 -104
180 c-58 99 -210 361 -338 583 l-234 402 0 338 c0 400 7 540 26 520 7 -7 92
-150 189 -318z m-305 -1090 c0 -279 -1 -291 -20 -308 -52 -44 -480 -277 -480
-261 0 6 8 26 19 43 10 17 121 208 246 424 125 215 229 392 231 392 2 0 4
-131 4 -290z m292 -115 c229 -397 262 -455 255 -461 -2 -3 -117 60 -255 138
l-251 143 -1 246 c0 135 3 267 6 293 l7 48 27 -44 c15 -23 110 -187 212 -363z
m-176 -268 c43 -24 150 -83 237 -132 l158 -90 -38 -7 c-52 -9 -948 -10 -939 0
16 16 472 270 487 271 8 1 51 -18 95 -42z m1329 -427 c-16 -10 -338 -195 -715
-410 -600 -343 -689 -391 -717 -386 -36 5 -181 85 -913 504 -277 159 -506 294
-508 301 -3 8 371 11 1440 11 1426 0 1443 -1 1413 -20z"/>
</g>
</svg>
