<?xml version="1.0" standalone="no"?>
<!DOCTYPE svg PUBLIC "-//W3C//DTD SVG 20010904//EN"
 "http://www.w3.org/TR/2001/REC-SVG-20010904/DTD/svg10.dtd">
<svg version="1.0" xmlns="http://www.w3.org/2000/svg"
 width="1120.000000pt" height="1120.000000pt" viewBox="0 0 1120.000000 1120.000000"
 preserveAspectRatio="xMidYMid meet">
<metadata>
Created by potrace 1.11, written by Peter Selinger 2001-2013
</metadata>
<g transform="translate(0.000000,1120.000000) scale(0.100000,-0.100000)"
fill="#000000" stroke="none">
<path d="M5560 10910 c-19 -10 -48 -26 -65 -34 -28 -14 -62 -34 -175 -98 -25
-14 -99 -56 -165 -93 -66 -37 -160 -91 -210 -119 -49 -29 -97 -55 -105 -59 -8
-4 -37 -21 -65 -37 -27 -17 -61 -36 -75 -43 -14 -6 -27 -14 -30 -17 -3 -3 -18
-12 -35 -20 -16 -8 -32 -17 -35 -20 -3 -3 -16 -11 -30 -18 -31 -16 -72 -39
-130 -73 -25 -15 -61 -36 -80 -46 -208 -117 -328 -185 -340 -193 -8 -6 -23
-13 -32 -16 -10 -4 -18 -10 -18 -14 0 -5 -12 -13 -27 -19 -16 -6 -48 -22 -73
-37 -42 -25 -107 -62 -155 -88 -11 -6 -22 -13 -25 -16 -3 -3 -14 -10 -25 -16
-11 -5 -118 -66 -238 -135 -120 -68 -235 -133 -255 -145 -20 -11 -57 -32 -82
-46 -46 -26 -202 -116 -255 -147 -16 -10 -50 -29 -75 -43 -60 -33 -151 -86
-170 -98 -8 -5 -37 -21 -65 -36 -27 -14 -57 -32 -65 -38 -8 -6 -33 -21 -55
-33 -22 -11 -54 -29 -72 -40 -27 -15 -431 -247 -583 -334 -25 -14 -61 -35 -80
-46 -19 -11 -75 -44 -125 -72 -49 -28 -97 -56 -105 -61 -8 -6 -26 -16 -40 -23
-14 -7 -56 -31 -95 -53 -38 -23 -88 -52 -110 -64 -22 -13 -62 -36 -90 -52 -27
-16 -61 -34 -75 -41 -14 -6 -27 -14 -30 -18 -3 -3 -25 -16 -50 -30 -25 -13
-46 -27 -48 -31 -2 -5 -9 -8 -16 -8 -10 0 -12 -294 -9 -1367 1 -753 4 -1387 5
-1411 2 -23 1 -42 -2 -42 -9 0 -3 -86 5 -101 5 -7 4 -10 -1 -7 -5 4 -9 -11 -9
-33 0 -21 3 -39 7 -39 4 0 3 -13 -2 -30 -5 -18 -5 -32 1 -36 7 -4 6 -10 0 -18
-6 -7 -6 -17 -1 -26 5 -8 5 -21 -1 -32 -7 -12 -6 -18 1 -18 7 0 8 -7 3 -17 -7
-16 -9 -48 -3 -63 6 -17 4 -80 -3 -80 -4 0 -2 -10 4 -22 8 -16 9 -23 1 -26 -7
-2 -8 -11 -2 -28 5 -13 6 -24 1 -24 -4 0 -7 -10 -5 -23 1 -12 3 -22 4 -22 1 0
3 -12 4 -27 1 -16 -2 -28 -7 -28 -6 0 -6 -5 0 -12 8 -12 8 -43 1 -140 -2 -21
-1 -38 2 -38 3 0 5 -18 5 -40 0 -22 -4 -40 -9 -40 -5 0 -4 -6 1 -12 6 -7 8
-31 6 -53 -2 -22 -3 -51 -2 -65 0 -14 0 -31 0 -37 -1 -7 -1 -19 -1 -25 0 -7 2
-319 4 -693 2 -374 4 -686 5 -693 1 -6 19 -20 41 -29 22 -10 40 -21 40 -25 0
-5 4 -8 9 -8 10 0 247 -135 269 -152 6 -6 12 -7 12 -2 0 5 4 4 8 -1 4 -6 74
-49 156 -95 82 -47 167 -96 190 -109 23 -12 160 -91 306 -174 146 -82 273
-157 283 -165 9 -8 17 -12 17 -8 0 4 13 -2 29 -13 16 -12 34 -21 40 -21 6 0
11 -4 11 -10 0 -5 4 -10 9 -10 5 0 96 -50 202 -112 107 -61 217 -124 244 -139
96 -53 280 -158 290 -166 10 -7 75 -43 150 -82 16 -9 35 -22 43 -29 7 -6 20
-12 28 -12 8 0 14 -4 14 -8 0 -4 12 -13 28 -19 26 -11 85 -44 162 -91 19 -12
42 -25 50 -29 8 -4 48 -26 88 -50 41 -24 75 -43 77 -43 2 0 33 -18 69 -40 36
-22 68 -40 70 -40 2 0 50 -27 106 -60 56 -33 104 -60 106 -60 2 0 21 -10 42
-23 40 -26 139 -81 187 -105 17 -9 32 -18 35 -21 3 -4 16 -12 30 -18 14 -7 48
-25 75 -41 28 -16 73 -42 100 -57 28 -16 127 -72 220 -125 94 -53 190 -108
215 -122 25 -14 63 -35 85 -48 64 -36 136 -76 185 -101 25 -13 47 -27 48 -31
2 -5 8 -8 14 -8 5 0 23 -9 39 -21 16 -11 29 -17 29 -13 0 4 8 1 18 -7 9 -8 26
-19 37 -25 35 -19 138 -76 180 -100 l40 -22 65 35 c36 20 100 55 142 79 43 24
82 44 88 44 5 0 10 5 10 10 0 6 5 10 10 10 6 0 83 41 173 92 89 50 178 100
197 111 40 22 135 76 165 94 11 6 34 19 50 27 17 9 48 26 70 39 52 31 102 60
200 115 44 25 103 58 130 74 28 16 65 36 83 44 17 8 32 19 32 24 0 6 8 10 18
10 10 0 22 4 27 9 14 13 257 151 266 151 4 0 14 6 21 14 8 8 32 23 54 33 65
32 259 146 265 156 3 5 9 8 13 7 4 -1 168 89 364 201 196 112 366 209 377 215
35 19 119 67 150 85 100 59 272 154 283 157 6 2 12 8 12 13 0 5 4 9 10 9 5 0
68 33 139 74 71 41 160 91 198 112 37 21 71 42 75 48 4 6 8 7 8 2 0 -5 8 -3
18 5 9 8 28 20 41 27 13 8 40 23 60 34 20 12 56 32 81 46 25 13 50 28 55 32 9
7 70 40 155 86 19 11 37 21 40 24 3 3 14 10 25 16 39 21 121 67 160 90 22 13
52 29 68 36 15 7 27 16 27 20 0 4 4 8 9 8 5 0 47 22 93 48 46 26 90 51 98 55
8 4 33 18 55 31 l40 24 0 1701 c0 936 -2 1701 -5 1701 -3 0 -5 448 -5 996 l0
996 -65 38 c-36 21 -85 50 -110 64 -25 15 -61 34 -80 44 -19 9 -37 20 -40 23
-3 3 -41 25 -85 49 -44 24 -81 47 -83 52 -2 4 -8 8 -13 8 -8 0 -191 102 -349
195 -30 17 -82 47 -115 66 -33 19 -69 39 -80 46 -11 6 -33 19 -50 27 -16 9
-37 20 -45 26 -23 15 -171 100 -175 100 -2 0 -33 18 -69 40 -36 22 -70 40 -76
40 -5 0 -10 4 -10 8 0 4 -12 13 -27 19 -16 6 -41 20 -58 30 -16 10 -62 37
-101 60 -39 24 -74 43 -78 43 -3 0 -23 11 -44 23 -20 13 -68 41 -107 62 -38
21 -72 41 -75 44 -3 3 -25 17 -50 30 -25 13 -88 49 -140 80 -52 30 -98 54
-102 53 -5 -1 -8 2 -8 8 0 5 -4 10 -9 10 -5 0 -64 32 -132 71 -138 80 -154 89
-254 144 -38 21 -72 41 -75 44 -3 3 -21 14 -40 25 -114 61 -235 131 -238 138
-2 4 -12 8 -22 8 -10 0 -20 3 -22 8 -1 4 -46 32 -98 61 -104 59 -142 81 -195
111 -79 45 -112 64 -145 82 -19 11 -51 29 -70 40 -121 71 -541 308 -545 308
-3 0 -37 20 -77 45 -40 25 -78 45 -85 45 -7 0 -13 4 -13 9 0 5 -8 11 -17 14
-10 3 -29 13 -43 21 -36 22 -251 140 -355 195 -48 25 -50 25 -95 1z m-183
-993 c-77 -145 -158 -291 -206 -367 -8 -14 -25 -43 -37 -65 -28 -51 -210 -357
-221 -371 -13 -17 -31 -47 -58 -94 -14 -25 -36 -63 -50 -85 -13 -22 -34 -58
-46 -79 -12 -22 -28 -46 -35 -54 -8 -7 -14 -18 -14 -23 0 -10 -70 -133 -88
-154 -4 -5 -14 -25 -21 -42 -7 -18 -17 -33 -22 -33 -5 0 -9 -5 -9 -10 0 -6
-47 -92 -105 -191 -58 -100 -105 -185 -105 -190 0 -4 -3 -9 -7 -11 -5 -1 -16
-19 -27 -38 -49 -92 -151 -266 -159 -271 -5 -3 -9 -10 -9 -15 0 -10 -37 -77
-75 -137 -13 -21 -28 -48 -34 -60 -5 -12 -18 -35 -28 -52 -48 -79 -72 -122
-78 -137 -3 -10 -9 -18 -14 -18 -5 0 -9 -5 -9 -11 0 -5 -25 -54 -56 -107 -87
-149 -95 -163 -127 -222 -17 -30 -48 -84 -69 -119 -21 -34 -38 -64 -38 -66 0
-2 -20 -38 -45 -79 -25 -42 -45 -78 -45 -80 0 -2 -17 -33 -39 -67 -21 -35 -55
-95 -76 -134 -21 -38 -46 -81 -56 -94 -11 -13 -16 -27 -13 -32 3 -5 0 -9 -5
-9 -6 0 -11 -4 -11 -9 0 -5 -24 -48 -53 -97 -29 -49 -66 -115 -82 -146 -17
-32 -33 -58 -37 -58 -5 0 -8 -5 -8 -11 0 -6 -32 -64 -70 -129 -38 -65 -70
-123 -70 -129 0 -6 -4 -11 -10 -11 -5 0 -10 -5 -10 -11 0 -6 -32 -64 -70 -129
-39 -65 -70 -123 -70 -129 0 -6 -4 -11 -10 -11 -5 0 -10 -4 -10 -9 0 -6 -29
-60 -65 -122 -36 -61 -65 -116 -65 -120 0 -5 -4 -9 -10 -9 -5 0 -10 -5 -10
-10 0 -14 -91 -173 -104 -182 -6 -4 -7 -8 -3 -8 5 0 -1 -13 -12 -29 -12 -16
-21 -32 -21 -35 0 -3 -15 -29 -33 -58 -19 -29 -37 -60 -40 -68 -4 -8 -22 -40
-40 -71 -17 -30 -54 -93 -80 -140 -26 -46 -56 -97 -66 -114 -10 -16 -29 -50
-43 -75 -14 -25 -35 -61 -46 -80 -11 -19 -29 -51 -40 -70 -22 -40 -28 -51
-143 -250 -46 -80 -89 -151 -96 -158 -7 -7 -13 -18 -13 -23 0 -6 -16 -35 -35
-65 -19 -30 -35 -57 -35 -59 0 -3 -19 -35 -42 -73 -60 -96 -64 -102 -94 -152
-31 -51 -81 -104 -87 -93 -6 10 -8 98 -10 390 -1 134 -6 243 -10 243 -5 0 -5
5 -1 11 10 17 10 149 -1 149 -5 0 -4 5 3 12 7 7 8 17 1 30 -5 10 -6 18 -2 18
4 0 8 11 8 25 0 14 -4 25 -8 25 -4 0 -3 9 3 19 7 13 7 22 0 26 -7 4 -7 12 -1
23 5 9 6 23 1 32 -5 9 -5 22 0 30 5 8 5 21 -1 31 -6 12 -5 20 1 24 7 5 8 11 1
19 -5 6 -6 18 -2 25 5 7 5 28 1 47 -5 21 -4 34 2 34 7 0 7 5 1 13 -5 6 -7 50
-6 97 4 101 4 90 0 163 -1 31 1 57 6 57 4 0 5 6 0 13 -10 17 -10 69 1 85 5 7
5 12 -1 12 -5 0 -8 19 -6 43 4 49 4 46 0 120 -1 31 1 57 6 57 4 0 5 5 1 12
-10 16 -11 159 -1 165 4 2 4 9 0 16 -10 16 -10 58 -1 63 5 3 5 10 1 17 -10 16
-10 58 -1 63 5 3 5 10 1 17 -8 13 -11 57 -3 57 3 0 5 11 5 25 0 14 -2 25 -5
25 -8 0 -5 44 4 58 4 7 4 12 -1 12 -4 0 -8 11 -8 25 0 14 4 25 8 25 4 0 4 8
-2 17 -5 10 -5 26 0 40 5 13 5 23 1 23 -4 0 -7 11 -7 25 0 14 4 25 8 25 5 0 5
5 2 10 -8 14 -10 149 -1 157 3 3 1 12 -5 19 -7 8 -7 14 0 18 6 4 7 15 1 30 -4
12 -4 29 0 36 5 8 6 18 3 23 -7 12 -7 116 0 124 4 3 2 14 -4 24 -5 11 -6 19
-2 19 5 0 7 21 6 48 -2 26 -3 52 -3 57 5 112 4 384 -2 396 -4 9 -4 19 0 23 3
4 7 198 7 431 1 233 3 426 5 428 3 3 59 35 125 72 66 37 149 84 185 106 36 21
71 39 78 39 6 0 12 4 12 8 0 5 16 14 35 22 19 8 35 17 35 22 0 4 4 8 10 8 5 0
43 20 84 44 41 24 84 47 95 51 12 3 21 10 21 14 0 4 16 13 35 21 19 8 35 17
35 22 0 4 4 8 9 8 9 0 172 90 181 100 3 3 19 12 35 21 66 34 120 64 125 69 5
5 10 8 115 65 39 21 77 44 85 51 8 7 22 14 30 16 8 2 17 5 20 8 7 8 118 72
165 95 22 11 42 23 45 26 3 3 25 16 50 30 25 13 47 26 50 29 3 3 23 15 45 26
111 59 231 129 237 138 4 6 8 7 8 3 0 -4 17 4 37 18 21 14 43 25 50 25 7 0 13
5 13 10 0 6 4 10 10 10 5 0 39 18 75 40 36 22 67 40 70 40 2 0 58 32 124 70
66 39 124 70 130 70 6 0 11 5 11 10 0 6 4 10 10 10 5 0 44 20 86 45 41 25 79
45 84 45 5 0 15 6 22 13 13 11 27 19 127 73 24 13 49 28 55 33 10 7 62 37 156
87 19 11 37 21 40 24 3 3 14 10 25 16 11 6 56 30 100 54 44 24 97 54 117 67
21 12 42 23 46 23 5 0 21 9 34 20 14 10 28 16 32 13 3 -3 6 -2 6 4 0 6 15 16
33 24 17 7 50 24 72 38 74 46 288 150 297 145 4 -3 -16 -51 -45 -107z m546 59
c97 -51 161 -86 240 -132 32 -19 62 -34 67 -34 4 0 10 -3 12 -7 3 -7 98 -60
155 -87 13 -6 23 -14 23 -18 0 -5 5 -8 11 -8 6 0 25 -10 42 -22 18 -13 33 -22
35 -20 2 2 101 -51 142 -78 8 -5 31 -17 50 -27 19 -9 37 -20 40 -24 3 -4 21
-14 40 -23 19 -9 62 -32 95 -51 33 -20 71 -41 85 -48 14 -6 27 -14 30 -17 6
-6 47 -29 85 -49 17 -8 32 -17 35 -20 5 -6 99 -58 137 -76 13 -5 23 -13 23
-17 0 -5 4 -8 9 -8 5 0 48 -22 96 -50 48 -27 91 -50 96 -50 5 0 9 -4 9 -10 0
-5 4 -10 9 -10 5 0 159 -86 342 -191 184 -106 354 -203 379 -217 59 -33 381
-219 400 -232 42 -26 116 -68 125 -69 6 -2 17 -8 25 -15 8 -7 105 -66 215
-131 110 -65 253 -151 317 -192 65 -40 122 -73 127 -73 5 0 11 -3 13 -7 3 -8
95 -73 103 -73 7 0 46 -32 73 -60 16 -16 26 -41 30 -70 6 -59 9 -3450 2 -3450
-5 0 -4 -88 0 -100 1 -3 1 -9 0 -15 -1 -5 -4 -120 -6 -255 -3 -135 -6 -281 -8
-325 -2 -44 -5 -92 -5 -107 -2 -69 -52 -13 -184 205 -26 43 -47 81 -47 84 0 4
-6 14 -14 22 -13 15 -33 50 -99 171 -16 30 -35 62 -41 70 -11 16 -16 24 -61
106 -15 27 -42 76 -61 109 -19 33 -38 68 -41 78 -3 9 -9 17 -14 17 -5 0 -9 4
-9 9 0 5 -31 63 -70 130 -38 66 -70 125 -70 131 0 5 -3 10 -7 10 -5 0 -13 10
-19 23 -18 38 -76 141 -95 169 -11 14 -19 30 -19 36 0 5 -7 15 -15 22 -8 7
-12 16 -9 21 3 5 0 9 -5 9 -6 0 -11 5 -11 10 0 6 -11 27 -23 48 -13 20 -35 57
-49 82 -14 25 -35 63 -48 85 -13 22 -33 59 -46 82 -13 23 -53 92 -89 153 -36
61 -65 113 -65 116 0 3 -14 25 -30 49 -16 24 -30 46 -30 49 0 2 -45 82 -100
176 -55 94 -100 175 -100 181 0 5 -4 9 -10 9 -5 0 -10 5 -10 11 0 6 -22 48
-50 95 -27 47 -50 89 -50 94 0 6 -4 10 -10 10 -5 0 -10 4 -10 9 0 13 -122 225
-132 229 -4 2 -8 12 -8 23 0 10 -4 19 -10 19 -5 0 -10 5 -10 11 0 6 -8 23 -18
37 -11 15 -32 52 -49 82 -16 30 -53 94 -81 142 -29 48 -52 91 -52 97 0 5 -4
11 -8 13 -9 3 -20 21 -59 98 -10 19 -21 37 -24 40 -3 3 -9 12 -12 20 -4 8 -21
38 -38 65 -16 28 -33 58 -36 68 -3 9 -10 17 -15 17 -5 0 -7 4 -3 9 3 5 1 12
-4 15 -5 3 -35 52 -67 108 -32 57 -66 115 -77 131 -10 15 -15 27 -10 27 4 0
-1 7 -11 15 -11 8 -16 15 -12 15 5 0 4 6 -2 13 -5 6 -65 109 -132 227 -67 118
-130 226 -138 240 -9 14 -14 25 -11 25 2 0 -6 13 -18 29 -13 16 -23 35 -23 42
0 8 -4 14 -9 14 -5 0 -11 8 -14 18 -4 9 -18 37 -33 62 -15 25 -35 60 -45 78
-24 41 -53 92 -80 140 -12 20 -33 57 -47 82 -14 25 -42 72 -62 105 -20 33 -39
67 -43 75 -4 8 -11 22 -17 30 -41 64 -130 221 -130 230 0 5 -4 10 -10 10 -5 0
-10 4 -10 9 0 4 -50 93 -112 197 -61 104 -116 199 -122 211 -6 13 -14 23 -18
23 -3 0 -9 14 -13 30 -4 17 -10 30 -14 30 -4 0 -16 17 -27 38 -12 20 -71 123
-132 228 -62 106 -115 200 -118 210 -4 11 -16 31 -26 47 -11 15 -17 27 -13 27
3 0 -1 10 -9 22 -15 21 -22 58 -11 58 3 0 42 -20 88 -44z m-12 -995 c11 -20
31 -54 45 -76 14 -22 27 -48 31 -57 3 -10 9 -18 13 -18 7 0 33 -52 30 -59 -1
-2 3 -7 8 -10 6 -3 25 -33 42 -65 18 -33 43 -75 56 -93 13 -19 26 -43 29 -54
4 -10 11 -19 16 -19 6 0 8 -4 5 -9 -3 -5 1 -14 9 -21 8 -7 15 -19 15 -26 0 -8
5 -14 10 -14 6 0 10 -4 10 -10 0 -5 27 -55 60 -111 33 -55 60 -103 60 -105 0
-3 16 -30 36 -61 19 -31 40 -65 45 -77 5 -12 13 -28 19 -36 5 -8 46 -78 90
-155 45 -77 85 -147 90 -155 5 -8 37 -64 72 -124 35 -60 70 -120 78 -135 9
-14 42 -73 75 -131 33 -58 63 -106 67 -108 4 -2 8 -7 8 -12 0 -7 84 -160 110
-200 5 -8 18 -31 28 -50 17 -31 175 -304 223 -385 10 -16 30 -54 46 -82 15
-29 31 -53 35 -53 4 0 8 -9 8 -20 0 -11 3 -20 8 -20 4 0 12 -10 18 -23 23 -49
59 -112 67 -115 4 -2 7 -8 7 -12 0 -5 14 -33 31 -62 17 -29 47 -82 67 -118 19
-36 38 -67 41 -70 4 -3 12 -16 18 -30 7 -14 27 -50 44 -80 18 -30 44 -77 59
-105 29 -54 84 -151 100 -175 5 -8 18 -31 28 -50 10 -19 29 -53 42 -75 13 -22
30 -52 37 -67 8 -15 19 -30 24 -33 5 -4 7 -10 4 -15 -3 -4 2 -13 10 -20 8 -7
15 -16 15 -20 0 -8 162 -294 198 -350 9 -14 17 -27 17 -30 0 -3 13 -24 28 -48
15 -24 33 -55 40 -70 6 -15 20 -36 29 -46 10 -11 21 -29 24 -40 4 -12 10 -23
13 -26 10 -8 81 -130 81 -140 0 -5 3 -10 8 -12 7 -3 112 -175 112 -185 0 -3 9
-17 19 -31 21 -30 75 -124 94 -162 6 -14 14 -27 18 -30 3 -3 19 -30 35 -60 16
-30 32 -57 37 -58 4 -2 5 -8 1 -13 -3 -5 0 -9 5 -9 6 0 11 -7 11 -15 0 -8 5
-15 10 -15 6 0 10 -4 10 -9 0 -5 16 -38 36 -73 20 -34 37 -69 37 -75 0 -7 3
-13 7 -13 12 0 102 -190 97 -204 -5 -11 -117 -13 -676 -12 -694 3 -701 3 -701
42 0 8 -4 14 -10 14 -5 0 -10 4 -10 9 0 5 -20 42 -44 82 -24 41 -54 93 -67
116 -130 227 -320 554 -346 595 -12 21 -23 42 -23 48 0 5 -4 10 -10 10 -5 0
-10 5 -10 10 0 6 -18 40 -40 76 -22 36 -40 67 -40 69 0 2 -18 33 -40 69 -22
36 -40 70 -40 76 0 5 -4 10 -10 10 -5 0 -10 4 -10 10 0 5 -22 47 -50 94 -27
47 -50 89 -50 95 0 6 -4 11 -8 11 -4 0 -18 19 -30 43 -28 54 -58 107 -105 183
-20 34 -37 66 -37 72 0 6 -3 12 -8 14 -9 4 -92 147 -92 159 0 5 -5 9 -11 9 -5
0 -8 4 -4 9 3 5 1 12 -4 15 -5 3 -35 52 -67 108 -31 57 -63 110 -70 118 -7 8
-13 18 -14 22 0 4 -11 24 -23 45 -53 87 -88 150 -99 176 -7 15 -16 27 -20 27
-4 0 -8 7 -8 15 0 8 -3 15 -8 15 -4 0 -15 17 -25 38 -26 54 -51 97 -59 100 -5
2 -8 9 -8 16 0 7 -6 18 -12 24 -7 7 -13 16 -13 20 0 4 -8 18 -16 32 -9 14 -42
70 -74 125 -32 55 -68 117 -81 137 -13 21 -24 39 -24 42 0 2 -15 28 -33 58
l-33 55 2 804 c2 1101 13 1414 51 1482 7 12 32 -12 54 -52z m-534 21 c13 -83
22 -661 26 -1756 2 -524 2 -540 -18 -577 -17 -33 -87 -153 -161 -278 -33 -56
-262 -448 -283 -484 -10 -17 -55 -94 -100 -171 -44 -76 -81 -142 -81 -146 0
-5 -3 -10 -7 -12 -8 -3 -31 -42 -75 -125 -12 -24 -26 -43 -30 -43 -4 0 -8 -9
-8 -20 0 -11 -4 -20 -10 -20 -5 0 -10 -7 -10 -15 0 -8 -5 -15 -11 -15 -5 0 -7
-4 -4 -10 3 -5 2 -10 -3 -10 -6 0 -13 -11 -16 -25 -4 -14 -11 -25 -16 -25 -6
0 -10 -5 -10 -11 0 -6 -15 -37 -34 -68 -19 -31 -43 -72 -54 -92 -42 -76 -186
-326 -212 -369 -30 -50 -170 -294 -213 -374 -16 -28 -43 -76 -61 -106 -18 -30
-44 -75 -57 -100 -13 -25 -30 -51 -36 -58 -7 -7 -13 -17 -13 -22 0 -5 -24 -50
-54 -102 -57 -100 -88 -156 -144 -258 -19 -36 -39 -69 -43 -74 -5 -6 -229 -9
-551 -8 -611 1 -807 8 -826 26 -2 3 12 35 32 71 19 36 32 65 28 65 -4 0 -2 4
4 8 6 4 20 25 32 47 11 22 70 128 132 235 62 107 124 215 138 240 13 25 33 57
43 72 11 14 19 29 19 32 0 3 32 58 71 123 40 65 83 136 96 158 13 22 29 52 36
68 6 15 15 27 19 27 4 0 8 4 8 9 0 6 17 38 39 73 99 162 171 287 171 296 0 6
4 12 8 14 10 4 102 164 102 177 0 5 4 11 8 13 4 2 26 35 47 73 22 39 45 79 52
90 6 11 19 34 27 50 8 17 26 48 39 70 13 22 35 60 49 85 14 25 48 85 77 134
28 49 51 92 51 96 0 4 7 13 15 20 9 7 13 15 10 18 -3 3 1 12 9 21 7 9 26 41
42 71 16 30 32 57 35 60 3 3 23 37 44 75 37 68 166 295 185 325 34 55 70 121
70 130 0 5 4 10 9 10 5 0 13 10 17 22 3 12 22 45 40 74 19 29 34 55 34 58 0 3
18 35 40 71 22 36 40 69 40 74 0 5 3 11 8 13 4 2 15 19 26 38 53 99 370 647
384 663 8 9 12 17 9 17 -6 0 26 56 71 125 7 11 15 28 18 38 4 9 10 17 15 17 5
0 9 5 9 11 0 6 38 76 85 155 47 80 85 148 85 152 0 5 5 13 12 20 7 7 26 36 43
66 32 57 113 199 130 228 5 10 44 74 85 144 41 70 88 150 104 178 16 28 33 53
38 54 4 2 8 8 8 13 0 16 51 91 58 85 3 -4 7 -14 9 -24z m181 -3009 c1 -32 1
-71 2 -88 0 -16 0 -37 0 -45 3 -146 0 -1187 -3 -1245 -6 -87 -19 -131 -46
-155 -31 -28 -80 -60 -91 -60 -5 0 -10 -4 -10 -8 0 -5 -18 -17 -40 -27 -22
-10 -40 -22 -40 -27 0 -4 -4 -8 -9 -8 -9 0 -41 -18 -166 -92 -16 -10 -42 -23
-57 -29 -16 -6 -28 -15 -28 -20 0 -5 -5 -9 -10 -9 -6 0 -46 -20 -88 -44 -102
-59 -214 -120 -282 -154 -30 -15 -57 -29 -60 -32 -9 -10 -338 -171 -354 -174
-8 -1 -18 -5 -22 -9 -14 -14 -23 5 -14 28 14 36 143 259 155 267 5 4 6 8 2 8
-4 0 5 19 20 43 16 23 40 63 53 90 14 26 28 47 32 47 5 0 8 6 8 13 1 6 16 37
35 67 19 30 40 67 46 83 6 15 15 27 20 27 5 0 9 6 9 14 0 8 7 22 16 30 8 9 13
16 10 16 -3 0 10 25 29 55 19 30 35 57 35 60 0 4 8 19 19 33 10 15 30 47 43
72 90 159 123 215 130 218 4 2 8 8 8 12 0 5 17 37 37 72 62 105 72 122 85 151
7 15 16 27 20 27 4 0 8 4 8 9 0 6 33 65 73 133 40 68 104 177 142 243 38 66
73 122 77 123 4 2 8 8 8 13 0 6 27 55 60 110 33 55 60 104 60 109 0 6 5 10 10
10 6 0 10 5 10 10 0 10 47 90 53 90 2 0 4 -26 5 -57z m241 -84 c39 -64 71
-120 71 -124 0 -4 8 -19 19 -33 10 -15 28 -43 39 -62 10 -19 43 -75 71 -123
28 -49 51 -93 51 -98 0 -5 5 -9 10 -9 6 0 10 -4 10 -9 0 -5 18 -39 40 -75 22
-36 40 -70 40 -76 0 -5 4 -10 9 -10 5 0 14 -14 22 -32 7 -17 36 -70 65 -118
62 -103 297 -511 348 -605 6 -11 13 -22 16 -25 3 -3 13 -21 24 -40 30 -56 57
-103 75 -130 9 -14 27 -46 40 -72 12 -27 27 -48 33 -48 6 0 9 -3 5 -6 -3 -3 5
-24 19 -45 13 -21 24 -41 24 -45 0 -3 8 -18 18 -32 17 -24 67 -115 144 -261
15 -29 28 -62 28 -72 0 -17 -3 -18 -22 -7 -13 7 -26 18 -30 23 -4 6 -8 7 -8 3
0 -3 -66 29 -146 73 -80 43 -150 79 -155 79 -5 0 -9 4 -9 9 0 5 -8 11 -17 14
-18 6 -78 38 -211 115 -37 21 -74 42 -82 45 -8 4 -22 11 -30 17 -37 24 -168
100 -173 100 -3 0 -51 27 -106 60 -56 33 -106 60 -111 60 -6 0 -10 5 -10 10 0
6 -5 10 -11 10 -7 0 -45 20 -87 45 -41 25 -77 45 -79 45 -3 0 -17 9 -33 20
l-28 20 3 647 c3 575 7 744 20 833 2 14 4 36 4 50 1 21 3 22 15 10 7 -8 45
-67 85 -131z m-97 -1566 c38 -14 68 -30 68 -35 0 -4 5 -8 12 -8 18 0 88 -33
88 -42 0 -4 5 -8 11 -8 6 0 123 -63 261 -140 138 -77 255 -140 259 -140 5 0 9
-4 9 -8 0 -5 16 -14 35 -22 19 -8 35 -18 35 -24 0 -5 3 -6 6 -3 4 4 19 -2 33
-12 14 -10 62 -37 106 -61 44 -24 82 -46 85 -49 5 -7 96 -57 168 -93 23 -12
42 -26 42 -32 0 -5 -3 -7 -6 -4 -3 4 -20 2 -37 -3 -18 -6 -70 -12 -117 -16
-133 -9 -2340 -12 -2345 -3 -3 4 -20 6 -39 3 -63 -8 -46 26 27 53 9 3 17 10
17 15 0 5 4 9 9 9 5 0 95 50 200 110 104 61 193 110 196 110 4 0 13 7 22 15 8
8 19 13 24 10 5 -4 9 -2 9 3 0 5 8 12 18 16 9 3 37 17 62 32 25 14 67 38 93
52 26 15 56 32 65 37 123 71 492 265 507 265 5 0 40 -12 77 -27z m3143 -1177
c398 -5 541 -11 573 -21 17 -6 15 -25 -2 -25 -8 0 -16 -3 -18 -7 -1 -5 -16
-15 -33 -24 -16 -9 -75 -43 -130 -75 -55 -32 -103 -59 -107 -59 -4 0 -17 -8
-28 -17 -11 -10 -27 -18 -35 -18 -8 0 -15 -4 -15 -10 0 -5 -4 -10 -10 -10 -5
0 -34 -16 -64 -35 -30 -19 -57 -35 -59 -35 -6 0 -288 -163 -316 -182 -13 -10
-28 -15 -33 -12 -4 3 -8 2 -8 -3 0 -4 -10 -13 -23 -19 -32 -16 -530 -302 -542
-311 -5 -5 -21 -14 -35 -20 -14 -7 -47 -26 -75 -43 -27 -16 -57 -33 -65 -36
-8 -4 -51 -28 -95 -54 -136 -79 -180 -104 -185 -105 -3 0 -23 -12 -45 -26 -22
-14 -76 -45 -120 -69 -44 -24 -81 -47 -83 -52 -2 -4 -7 -8 -12 -8 -4 0 -83
-43 -175 -95 -92 -52 -171 -95 -176 -95 -4 0 -9 -3 -11 -7 -1 -5 -19 -16 -38
-27 -57 -30 -143 -78 -175 -97 -42 -24 -233 -132 -275 -155 -19 -11 -40 -25
-48 -31 -12 -12 -21 -15 -38 -12 -4 0 -10 -3 -13 -8 -8 -12 -161 -98 -386
-218 -49 -26 -94 -51 -99 -56 -6 -5 -18 -9 -28 -9 -10 0 -18 -3 -18 -8 0 -4
-15 -13 -32 -21 -18 -7 -46 -19 -63 -26 -46 -20 -98 -32 -115 -27 -8 3 -26 9
-40 15 -14 6 -27 11 -30 12 -19 5 -106 51 -111 58 -3 5 -10 9 -15 9 -10 0 -44
17 -164 83 -47 25 -93 49 -102 52 -10 3 -18 9 -18 14 0 5 -4 9 -10 9 -9 0 -40
16 -255 137 -49 28 -112 63 -140 78 -27 16 -138 78 -245 138 -107 61 -205 115
-217 121 -13 6 -23 14 -23 19 0 4 -4 7 -9 7 -5 0 -146 78 -313 173 -167 96
-323 185 -348 199 -25 14 -85 48 -133 77 -49 28 -91 51 -94 51 -3 0 -17 8 -31
19 -23 15 -64 39 -167 95 -11 6 -22 13 -25 16 -5 5 -41 26 -100 57 -19 10 -37
20 -40 23 -6 6 -29 19 -120 70 -115 64 -504 292 -532 311 -15 11 -30 19 -33
19 -3 0 -31 16 -61 35 -30 19 -59 35 -64 35 -6 0 -10 5 -10 10 0 6 -5 10 -10
10 -6 0 -47 23 -91 50 -44 28 -85 50 -90 50 -5 0 -9 5 -9 10 0 6 -4 10 -9 10
-13 0 -111 64 -111 73 0 4 15 8 33 8 17 1 70 3 117 5 47 2 474 7 950 10 476 3
866 7 867 8 5 4 4697 -3 5058 -8z"/>
</g>
</svg>
